<svg width="125" height="24" viewBox="0 0 125 24" fill="none" xmlns="http://www.w3.org/2000/svg">
<path d="M8.29785 14.3721H3.28809V23H0.460938V1.67188H7.52148C9.92383 1.67188 11.7695 2.21875 13.0586 3.3125C14.3574 4.40625 15.0068 5.99805 15.0068 8.08789C15.0068 9.41602 14.6455 10.5732 13.9229 11.5596C13.21 12.5459 12.2139 13.2832 10.9346 13.7715L15.9443 22.8242V23H12.9268L8.29785 14.3721ZM3.28809 12.0723H7.60938C9.00586 12.0723 10.1143 11.7109 10.9346 10.9883C11.7646 10.2656 12.1797 9.29883 12.1797 8.08789C12.1797 6.76953 11.7842 5.75879 10.9932 5.05566C10.2119 4.35254 9.0791 3.99609 7.59473 3.98633H3.28809V12.0723ZM21.4814 23H18.7715V7.15039H21.4814V23ZM18.5518 2.94629C18.5518 2.50684 18.6836 2.13574 18.9473 1.83301C19.2207 1.53027 19.6211 1.37891 20.1484 1.37891C20.6758 1.37891 21.0762 1.53027 21.3496 1.83301C21.623 2.13574 21.7598 2.50684 21.7598 2.94629C21.7598 3.38574 21.623 3.75195 21.3496 4.04492C21.0762 4.33789 20.6758 4.48438 20.1484 4.48438C19.6211 4.48438 19.2207 4.33789 18.9473 4.04492C18.6836 3.75195 18.5518 3.38574 18.5518 2.94629ZM31.0615 19.3232L34.9873 7.15039H37.7559L32.0723 23H30.0068L24.2646 7.15039H27.0332L31.0615 19.3232ZM49.9141 23C49.7578 22.6875 49.6309 22.1309 49.5332 21.3301C48.2734 22.6387 46.7695 23.293 45.0215 23.293C43.459 23.293 42.1748 22.8535 41.1689 21.9746C40.1729 21.0859 39.6748 19.9629 39.6748 18.6055C39.6748 16.9551 40.2998 15.6758 41.5498 14.7676C42.8096 13.8496 44.5771 13.3906 46.8525 13.3906H49.4893V12.1455C49.4893 11.1982 49.2061 10.4463 48.6396 9.88965C48.0732 9.32324 47.2383 9.04004 46.1348 9.04004C45.168 9.04004 44.3574 9.28418 43.7031 9.77246C43.0488 10.2607 42.7217 10.8516 42.7217 11.5449H39.9971C39.9971 10.7539 40.2754 9.99219 40.832 9.25977C41.3984 8.51758 42.1602 7.93164 43.1172 7.50195C44.084 7.07227 45.1436 6.85742 46.2959 6.85742C48.1221 6.85742 49.5527 7.31641 50.5879 8.23438C51.623 9.14258 52.1602 10.3975 52.1992 11.999V19.2939C52.1992 20.749 52.3848 21.9062 52.7559 22.7656V23H49.9141ZM45.417 20.9346C46.2666 20.9346 47.0723 20.7148 47.834 20.2754C48.5957 19.8359 49.1475 19.2646 49.4893 18.5615V15.3096H47.3652C44.0449 15.3096 42.3848 16.2812 42.3848 18.2246C42.3848 19.0742 42.668 19.7383 43.2344 20.2168C43.8008 20.6953 44.5283 20.9346 45.417 20.9346ZM59.3916 23H56.6816V0.5H59.3916V23Z" fill="#2A4365"/>
<path d="M79.8555 16.2324C79.5918 18.4883 78.7568 20.2314 77.3506 21.4619C75.9541 22.6826 74.0938 23.293 71.7695 23.293C69.25 23.293 67.2285 22.3896 65.7051 20.583C64.1914 18.7764 63.4346 16.3594 63.4346 13.332V11.2812C63.4346 9.29883 63.7861 7.55566 64.4893 6.05176C65.2021 4.54785 66.208 3.39551 67.5068 2.59473C68.8057 1.78418 70.3096 1.37891 72.0186 1.37891C74.2842 1.37891 76.1006 2.01367 77.4678 3.2832C78.835 4.54297 79.6309 6.29102 79.8555 8.52734H77.0283C76.7842 6.82812 76.252 5.59766 75.4316 4.83594C74.6211 4.07422 73.4834 3.69336 72.0186 3.69336C70.2217 3.69336 68.8105 4.35742 67.7852 5.68555C66.7695 7.01367 66.2617 8.90332 66.2617 11.3545V13.4199C66.2617 15.7344 66.7451 17.5752 67.7119 18.9424C68.6787 20.3096 70.0312 20.9932 71.7695 20.9932C73.332 20.9932 74.5283 20.6416 75.3584 19.9385C76.1982 19.2256 76.7549 17.9902 77.0283 16.2324H79.8555ZM87.3408 1.67188L94.3135 19.0742L101.286 1.67188H104.934V23H102.121V14.6943L102.385 5.72949L95.3828 23H93.2295L86.2422 5.77344L86.5205 14.6943V23H83.708V1.67188H87.3408ZM116.184 13.4932C113.771 12.7998 112.014 11.9502 110.91 10.9443C109.816 9.92871 109.27 8.67871 109.27 7.19434C109.27 5.51465 109.938 4.12793 111.276 3.03418C112.624 1.93066 114.372 1.37891 116.521 1.37891C117.985 1.37891 119.289 1.66211 120.432 2.22852C121.584 2.79492 122.473 3.57617 123.098 4.57227C123.732 5.56836 124.05 6.65723 124.05 7.83887H121.223C121.223 6.5498 120.812 5.53906 119.992 4.80664C119.172 4.06445 118.015 3.69336 116.521 3.69336C115.134 3.69336 114.05 4.00098 113.269 4.61621C112.497 5.22168 112.111 6.06641 112.111 7.15039C112.111 8.01953 112.478 8.75684 113.21 9.3623C113.952 9.95801 115.207 10.5049 116.975 11.0029C118.752 11.501 120.139 12.0527 121.135 12.6582C122.141 13.2539 122.883 13.9521 123.361 14.7529C123.85 15.5537 124.094 16.4961 124.094 17.5801C124.094 19.3086 123.42 20.6953 122.072 21.7402C120.725 22.7754 118.923 23.293 116.667 23.293C115.202 23.293 113.835 23.0146 112.565 22.458C111.296 21.8916 110.314 21.1201 109.621 20.1436C108.938 19.167 108.596 18.0586 108.596 16.8184H111.423C111.423 18.1074 111.896 19.1279 112.844 19.8799C113.801 20.6221 115.075 20.9932 116.667 20.9932C118.151 20.9932 119.289 20.6904 120.08 20.085C120.871 19.4795 121.267 18.6543 121.267 17.6094C121.267 16.5645 120.9 15.7588 120.168 15.1924C119.436 14.6162 118.107 14.0498 116.184 13.4932Z" fill="#63B3ED"/>
</svg>